# xmcd CD database file
#
# Track frame offsets:
#	150
#	17286
#	32695
#	56119
#	87348
#	104933
#	123719
#	140832
#	161818
#	179875
#	198847
#
# Disc length: 2940 seconds
#
# Revision: 0
# Processed by: cddbd v1.5.2PL0 Copyright (c) Steve Scherf et al.
# Submitted via: CDex 1.82
#
DISCID=a60b7a0b
DTITLE=Coco Montoya - Coming In Hot
DYEAR=2019
DGENRE=Blues
TTITLE0=Good Man Gone
TTITLE1=Coming In Hot
TTITLE2=Stop Runnin' Away From My Love
TTITLE3=Lights Are On But Nobody's Home
TTITLE4=Stone Survivor
TTITLE5=What Am I?
TTITLE6=Ain't It A Good Thing
TTITLE7=I Wouldn't Wanna Be You
TTITLE8=Trouble
TTITLE9=Witness Protection
TTITLE10=Water To Wine
EXTD=YEAR: 2019
EXTT0=
EXTT1=
EXTT2=
EXTT3=
EXTT4=
EXTT5=
EXTT6=
EXTT7=
EXTT8=
EXTT9=
EXTT10=
PLAYORDER=
